<?xml version="1.0" encoding="UTF-8"?>
<svg version="1.1" xmlns="http://www.w3.org/2000/svg" width="512" height="512">
<path d="M0 0 C168.96 0 337.92 0 512 0 C512 168.96 512 337.92 512 512 C343.04 512 174.08 512 0 512 C0 343.04 0 174.08 0 0 Z " fill="#FE6601" transform="translate(0,0)"/>
<path d="M0 0 C15.51 0 31.02 0 47 0 C60.54054054 21.43918919 60.54054054 21.43918919 67 32 C71.61939799 39.53067257 76.26280912 47.04282864 81 54.5 C86.44741689 63.07519197 91.76496408 71.72786439 97.078125 80.38671875 C101.46607906 87.52970503 105.90798203 94.63458716 110.40429688 101.7097168 C115.54481659 109.81893897 120.55848873 118.00618159 125.5703125 126.1953125 C129.40908665 132.487233 129.40908665 132.487233 133.46875 138.63671875 C135 141 135 141 135 143 C135.66 143 136.32 143 137 143 C137 95.81 137 48.62 137 0 C151.52 0 166.04 0 181 0 C181 70.62 181 141.24 181 214 C165.16 214 149.32 214 133 214 C121.53299657 200.78497776 121.53299657 200.78497776 119.609375 194.94921875 C117.38616923 188.84035801 114.65287274 183.84598609 111 178.5 C110.03132447 176.98717466 109.06920628 175.47013299 108.11328125 173.94921875 C107.61779785 173.16466309 107.12231445 172.38010742 106.61181641 171.57177734 C102.74393931 165.40028123 98.94950444 159.18308227 95.1394043 152.97583008 C89.9457448 144.52061911 84.70138706 136.09835399 79.43432617 127.6887207 C74.91157491 120.46555251 70.41850987 113.22459758 65.93969727 105.97412109 C60.91239126 97.84251383 55.84097292 89.7386433 50.75976562 81.640625 C50.15326172 80.67253906 49.54675781 79.70445312 48.921875 78.70703125 C48.38143555 77.8456958 47.84099609 76.98436035 47.28417969 76.09692383 C46 74 46 74 45 72 C44.67 118.86 44.34 165.72 44 214 C29.48 214 14.96 214 0 214 C0 143.38 0 72.76 0 0 Z " fill="#FFFEFD" transform="translate(277,156)"/>
<path d="M0 0 C15.51 0 31.02 0 47 0 C47 27.06 47 54.12 47 82 C75.38 82 103.76 82 133 82 C133 54.94 133 27.88 133 0 C148.84 0 164.68 0 181 0 C181 70.62 181 141.24 181 214 C165.16 214 149.32 214 133 214 C133 183.64 133 153.28 133 122 C104.62 122 76.24 122 47 122 C47 152.36 47 182.72 47 214 C31.49 214 15.98 214 0 214 C0 143.38 0 72.76 0 0 Z " fill="#FFFDFC" transform="translate(54,156)"/>
</svg>
